<?xml version="1.0" encoding="UTF-8"?>
<svg width="24px" height="24px" viewBox="0 0 24 24" version="1.1" xmlns="http://www.w3.org/2000/svg" xmlns:xlink="http://www.w3.org/1999/xlink">
    <!-- Generator: Sketch 54.1 (76490) - https://sketchapp.com -->
    <title>i_congno@</title>
    <desc>Created with Sketch.</desc>
    <g id="i_congno" stroke="none" stroke-width="1" fill="none" fill-rule="evenodd">
        <g>
            <rect id="Rectangle-Copy-16" transform="translate(12.000000, 12.000000) rotate(90.000000) translate(-12.000000, -12.000000) " x="0" y="0" width="24" height="24"></rect>
            <path d="M20.1,7 L3.9,7 C3.40303125,7 3,7.41049479 3,7.91666667 L3,17.0833333 C3,17.5895052 3.40303125,18 3.9,18 L20.1,18 C20.5969688,18 21,17.5895052 21,17.0833333 L21,7.91666667 C21,7.41049479 20.5969688,7 20.1,7 Z M19.65,14.7916667 C18.6557813,14.7916667 17.85,15.6123698 17.85,16.625 L6.15,16.625 C6.15,15.6123698 5.34421875,14.7916667 4.35,14.7916667 L4.35,10.2083333 C5.34421875,10.2083333 6.15,9.38763021 6.15,8.375 L17.85,8.375 C17.85,9.38763021 18.6557813,10.2083333 19.65,10.2083333 L19.65,14.7916667 Z M12,9.75 C10.7574375,9.75 9.75,10.9811979 9.75,12.5 C9.75,14.0185156 10.7571563,15.25 12,15.25 C13.2422813,15.25 14.25,14.0190885 14.25,12.5 C14.25,10.9811979 13.2425625,9.75 12,9.75 Z" fill="#299F9A" fill-rule="nonzero"></path>
        </g>
    </g>
</svg>