<?xml version="1.0" encoding="UTF-8"?>
<svg width="24px" height="24px" viewBox="0 0 24 24" version="1.1" xmlns="http://www.w3.org/2000/svg" xmlns:xlink="http://www.w3.org/1999/xlink">
    <!-- Generator: Sketch 54.1 (76490) - https://sketchapp.com -->
    <title>i_baocao@</title>
    <desc>Created with Sketch.</desc>
    <g id="i_baocao" stroke="none" stroke-width="1" fill="none" fill-rule="evenodd">
        <g>
            <rect id="Rectangle-Copy-15" transform="translate(12.000000, 12.000000) rotate(90.000000) translate(-12.000000, -12.000000) " x="0" y="0" width="24" height="24"></rect>
            <g transform="translate(5.000000, 4.000000)" fill="#299F9A" fill-rule="nonzero" id="Combined-Shape">
                <path d="M3.5,6.5 L10.5,6.5 L10.5,7.5 L3.5,7.5 L3.5,6.5 Z M3.5,9 L10.5,9 L10.5,10 L3.5,10 L3.5,9 Z M3.5,11.5 L7,11.5 L7,12.5 L3.5,12.5 L3.5,11.5 Z M13.5,2 C13.7765,2 14,2.224 14,2.5 L14,15.5 C14,15.776 13.7765,16 13.5,16 L0.5,16 C0.2235,16 0,15.776 0,15.5 L0,2.5 C0,2.224 0.2235,2 0.5,2 L2.5,2 L2.5,3.5 L1.5,3.5 L1.5,14.5 L12.5,14.5 L12.5,3.5 L11.5,3.5 L11.5,2 L13.5,2 Z M10.5,2 L10.5,4.5 L3.5,4.5 L3.5,2 L5,2 C5,0.8955 5.8955,4.4408921e-16 7,4.4408921e-16 C8.1045,4.4408921e-16 9,0.8955 9,2 L10.5,2 Z"></path>
            </g>
        </g>
    </g>
</svg>